<svg width="20" height="20" viewBox="0 0 20 20" fill="none" xmlns="http://www.w3.org/2000/svg">
<g clip-path="url(#clip0_1_30)">
<path d="M9.78335 14.7917H14.7167C14.6417 14.8583 14.5667 14.9167 14.4917 14.9833L10.9334 17.65C9.75835 18.525 7.84169 18.525 6.65835 17.65L3.09169 14.9833C2.30835 14.4 1.66669 13.1083 1.66669 12.1333V5.95834C1.66669 4.94167 2.44169 3.81667 3.39169 3.45834L7.54169 1.9C8.22502 1.64167 9.35835 1.64167 10.0417 1.9L14.1834 3.45834C14.975 3.75834 15.65 4.59167 15.8584 5.44167H9.77502C9.59169 5.44167 9.42502 5.45 9.26669 5.45C7.72502 5.54167 7.32502 6.1 7.32502 7.85834V12.3833C7.33335 14.3 7.82502 14.7917 9.78335 14.7917Z" stroke="#3A38FF" stroke-width="1.66667" stroke-linecap="round" stroke-linejoin="round"/>
<path d="M7.33331 9.35001H18.3333" stroke="#3A38FF" stroke-width="1.66667" stroke-miterlimit="10" stroke-linecap="round" stroke-linejoin="round"/>
<path d="M18.3333 7.84999V12.475C18.3166 14.325 17.8083 14.7833 15.8833 14.7833H9.78331C7.82498 14.7833 7.33331 14.2917 7.33331 12.3667V7.84165C7.33331 6.09165 7.73331 5.53332 9.27498 5.43332C9.43331 5.43332 9.59998 5.42499 9.78331 5.42499H15.8833C17.8416 5.43332 18.3333 5.91665 18.3333 7.84999Z" stroke="#3A38FF" stroke-width="1.66667" stroke-linecap="round" stroke-linejoin="round"/>
<path d="M9.43335 12.7167H10.5417M12.2917 12.7167H15.0167" stroke="#3A38FF" stroke-width="1.66667" stroke-miterlimit="10" stroke-linecap="round" stroke-linejoin="round"/>
</g>
<defs>
<clipPath id="clip0_1_30">
<rect width="20" height="20" fill="white"/>
</clipPath>
</defs>
</svg>
